<?xml version="1.0" standalone="no"?>
<!DOCTYPE svg PUBLIC "-//W3C//DTD SVG 20010904//EN"
 "http://www.w3.org/TR/2001/REC-SVG-20010904/DTD/svg10.dtd">
<svg version="1.0" xmlns="http://www.w3.org/2000/svg"
 width="512.000000pt" height="512.000000pt" viewBox="0 0 512.000000 512.000000"
 preserveAspectRatio="xMidYMid meet">
<metadata>
Created by potrace 1.11, written by Peter Selinger 2001-2013
</metadata>
<g transform="translate(0.000000,512.000000) scale(0.100000,-0.100000)"
fill="#000000" stroke="none">
<path d="M2378 5115 c-2 -1 -34 -6 -73 -9 -68 -6 -96 -10 -160 -21 -50 -9 -99
-17 -112 -18 -7 0 -13 -3 -13 -7 0 -3 -8 -6 -17 -6 -27 -1 -81 -11 -91 -18 -5
-3 -23 -8 -40 -11 -17 -3 -44 -10 -59 -17 -15 -6 -38 -13 -51 -15 -13 -2 -48
-15 -78 -28 -30 -13 -54 -22 -54 -20 0 4 -76 -29 -190 -83 -93 -45 -194 -102
-202 -115 -4 -7 -8 -9 -8 -4 0 6 -82 -44 -125 -75 -218 -163 -349 -281 -475
-429 -30 -35 -59 -69 -65 -75 -5 -6 -19 -23 -30 -38 -11 -16 -25 -33 -30 -40
-18 -20 -115 -164 -115 -171 0 -3 -9 -15 -20 -27 -10 -12 -17 -24 -15 -29 3
-4 -1 -13 -8 -21 -32 -32 -187 -358 -190 -400 -1 -10 -5 -18 -10 -18 -4 0 -7
-6 -5 -12 1 -7 -3 -23 -10 -35 -7 -12 -11 -26 -11 -30 1 -4 0 -15 -4 -23 -17
-47 -26 -83 -21 -91 3 -5 1 -9 -4 -9 -5 0 -9 -6 -10 -12 -1 -7 -11 -56 -22
-108 -12 -52 -23 -106 -25 -120 -2 -14 -6 -41 -9 -60 -17 -99 -23 -224 -21
-400 3 -206 19 -343 59 -520 3 -14 11 -49 17 -77 7 -29 16 -53 20 -53 5 0 6
-6 3 -13 -3 -8 1 -27 7 -43 7 -16 14 -38 15 -50 1 -12 11 -41 22 -65 10 -24
29 -71 42 -104 32 -82 131 -285 140 -285 4 0 7 -6 7 -13 0 -7 9 -27 20 -43 25
-36 49 -76 54 -89 4 -10 24 -37 47 -60 6 -8 12 -17 12 -20 0 -6 14 -25 80
-109 71 -90 290 -325 290 -311 0 1 19 -15 42 -37 53 -48 203 -162 283 -214 33
-21 63 -43 67 -49 4 -5 8 -6 8 -1 0 5 6 4 13 -2 32 -26 236 -130 317 -162 90
-36 95 -38 103 -39 4 0 21 -8 37 -16 17 -9 35 -13 40 -10 5 3 11 1 15 -5 4 -6
11 -8 16 -5 5 4 9 2 9 -3 0 -5 6 -9 13 -10 22 -2 42 -7 55 -16 7 -4 16 -6 18
-3 3 3 21 -1 40 -9 19 -8 34 -12 34 -9 0 2 11 0 25 -5 14 -5 53 -14 88 -20 34
-6 73 -13 87 -16 134 -23 246 -30 439 -28 119 2 230 5 246 8 17 2 50 7 75 10
25 4 56 9 70 11 14 3 36 7 50 10 14 3 39 8 55 11 17 4 39 8 50 10 11 1 20 3
20 4 0 1 13 4 29 6 16 3 37 9 47 15 10 5 27 9 39 9 12 0 19 4 16 9 -4 5 3 7
14 4 12 -3 20 0 20 6 0 7 4 10 9 6 10 -5 160 46 247 85 112 50 288 143 315
166 9 8 19 11 22 7 4 -3 7 -1 7 5 0 7 6 12 14 12 8 0 16 3 18 8 2 4 32 27 68
51 164 112 357 286 476 427 21 26 44 52 50 58 6 6 38 49 72 96 34 47 66 90 70
95 4 6 17 26 28 45 10 19 22 37 25 40 4 3 26 41 49 85 24 44 53 98 65 120 11
22 34 72 50 110 16 39 33 73 38 76 5 3 8 9 7 13 -4 16 13 66 22 66 6 0 9 3 5
6 -3 3 1 23 8 45 8 21 11 39 7 39 -4 0 -2 4 4 8 9 6 44 127 60 207 2 11 6 31
9 45 3 14 10 52 16 85 5 33 12 71 14 85 26 143 26 629 0 702 -2 7 -7 33 -10
58 -10 79 -28 163 -52 249 -8 29 -16 59 -18 65 -1 6 -5 18 -8 26 -25 66 -45
144 -40 153 3 5 1 7 -5 3 -6 -3 -13 4 -17 16 -11 40 -78 191 -118 263 -20 39
-45 86 -55 105 -9 19 -23 41 -29 48 -7 7 -13 19 -13 25 0 7 -12 26 -28 42 -15
17 -33 41 -40 55 -42 81 -279 348 -412 464 -71 62 -220 175 -240 181 -11 3
-20 10 -20 15 0 4 -21 21 -47 36 -27 16 -57 34 -68 41 -61 36 -309 163 -320
163 -4 0 -21 6 -38 14 -18 8 -61 24 -97 36 -36 12 -74 26 -85 31 -17 7 -67 21
-125 35 -8 2 -42 10 -75 18 -67 16 -84 19 -235 42 -89 14 -511 29 -522 19z"/>
</g>
</svg>
